<?xml version="1.0" encoding="UTF-8" standalone="no"?>
<!DOCTYPE svg PUBLIC "-//W3C//DTD SVG 1.1//EN" "http://www.w3.org/Graphics/SVG/1.1/DTD/svg11.dtd">
<svg width="100%" height="100%" viewBox="0 0 664 192" version="1.1" xmlns="http://www.w3.org/2000/svg" xmlns:xlink="http://www.w3.org/1999/xlink" xml:space="preserve" xmlns:serif="http://www.serif.com/" style="fill-rule:evenodd;clip-rule:evenodd;stroke-linejoin:round;stroke-miterlimit:2;">
    <g transform="matrix(1,0,0,1,-110.441,-463.882)">
        <g transform="matrix(1,0,0,1,2,0)">
            <path d="M176.863,602.745C167.843,602.745 159.248,601.144 151.078,597.941C142.908,594.739 135.654,590.261 129.314,584.51C122.974,578.758 117.974,571.993 114.314,564.216C110.654,556.438 108.824,548.039 108.824,539.02C108.824,529.346 110.719,520.327 114.51,511.961C118.301,503.595 123.529,496.275 130.196,490C136.863,483.725 144.542,478.824 153.235,475.294C161.928,471.765 171.176,470 180.98,470C183.203,470 186.242,470.229 190.098,470.686C193.954,471.144 197.941,471.699 202.059,472.353C206.176,473.007 209.902,473.693 213.235,474.412C216.569,475.131 218.889,475.817 220.196,476.471C220.85,476.732 221.275,477.026 221.471,477.353C221.667,477.68 221.83,478.17 221.961,478.824C222.484,482.614 222.941,486.373 223.333,490.098C223.725,493.824 223.922,496.993 223.922,499.608C223.922,500.523 223.627,501.405 223.039,502.255C222.451,503.105 221.765,503.529 220.98,503.529C219.673,503.529 218.693,502.941 218.039,501.765C217.386,500.588 216.863,499.412 216.471,498.235C215.686,496.144 214.869,494.346 214.02,492.843C213.17,491.34 211.961,489.673 210.392,487.843C209.608,486.797 207.941,485.458 205.392,483.824C202.843,482.19 199.412,480.719 195.098,479.412C190.784,478.105 185.49,477.451 179.216,477.451C171.634,477.451 164.706,479.052 158.431,482.255C152.157,485.458 146.765,489.837 142.255,495.392C137.745,500.948 134.281,507.255 131.863,514.314C129.444,521.373 128.235,528.758 128.235,536.471C128.235,545.752 129.673,554.052 132.549,561.373C135.425,568.693 139.281,574.902 144.118,580C148.954,585.098 154.444,588.954 160.588,591.569C166.732,594.183 173.072,595.49 179.608,595.49C187.19,595.49 192.778,594.575 196.373,592.745C199.967,590.915 202.353,589.412 203.529,588.235C204.967,586.797 206.307,584.771 207.549,582.157C208.791,579.542 209.412,576.536 209.412,573.137C209.412,571.961 209.444,570.719 209.51,569.412C209.575,568.105 209.641,566.797 209.706,565.49C209.771,564.183 209.804,562.941 209.804,561.765C209.804,560.327 209.739,559.118 209.608,558.137C209.477,557.157 209.216,556.405 208.824,555.882C207.778,554.444 205.948,553.268 203.333,552.353C200.719,551.438 198.105,550.784 195.49,550.392C192.876,550 190.915,549.804 189.608,549.804C189.085,549.804 188.301,549.477 187.255,548.824C186.209,548.17 185.686,547.386 185.686,546.471C185.686,545.425 186.209,544.608 187.255,544.02C188.301,543.431 189.085,543.137 189.608,543.137C192.876,543.137 195.686,543.203 198.039,543.333C200.392,543.464 202.81,543.595 205.294,543.725C207.778,543.856 210.784,543.922 214.314,543.922C217.712,543.922 220.588,543.791 222.941,543.529C225.294,543.268 228.235,543.137 231.765,543.137C232.288,543.137 233.105,543.333 234.216,543.725C235.327,544.118 235.882,544.967 235.882,546.275C235.882,547.19 235.327,547.974 234.216,548.627C233.105,549.281 232.288,549.673 231.765,549.804C228.889,550.588 226.895,551.732 225.784,553.235C224.673,554.739 223.922,556.797 223.529,559.412C223.137,562.288 222.876,564.837 222.745,567.059C222.614,569.281 222.549,571.634 222.549,574.118L222.549,579.412C222.549,580.065 222.68,580.588 222.941,580.98C223.203,581.373 223.464,581.895 223.725,582.549C224.118,583.203 224.641,583.791 225.294,584.314C225.948,584.837 226.275,585.359 226.275,585.882C226.275,586.405 226.176,587.092 225.98,587.941C225.784,588.791 224.967,589.346 223.529,589.608C222.614,589.739 220.817,590.49 218.137,591.863C215.458,593.235 212.092,594.771 208.039,596.471C203.987,598.17 199.346,599.641 194.118,600.882C188.889,602.124 183.137,602.745 176.863,602.745Z" style="fill:rgb(0,165,52);fill-rule:nonzero;"/>
        </g>
        <g transform="matrix(1,0,0,1,2,0)">
            <path d="M234.314,600.588C233.007,600.588 232.026,600.425 231.373,600.098C230.719,599.771 230.392,599.216 230.392,598.431C230.392,597.386 230.784,596.699 231.569,596.373C232.353,596.046 233.464,595.686 234.902,595.294C237.386,594.641 239.248,593.693 240.49,592.451C241.732,591.209 242.353,589.673 242.353,587.843L242.353,545.686C242.353,542.157 241.83,539.085 240.784,536.471C239.739,533.856 237.582,532.222 234.314,531.569C233.791,531.438 233.333,531.111 232.941,530.588C232.549,530.065 232.353,529.542 232.353,529.02C232.353,527.712 232.941,526.928 234.118,526.667C237.516,525.621 241.078,524.085 244.804,522.059C248.529,520.033 251.438,518.366 253.529,517.059C254.314,516.536 254.935,516.176 255.392,515.98C255.85,515.784 256.209,515.686 256.471,515.686C257.124,515.686 257.451,516.144 257.451,517.059C257.451,517.451 257.418,518.431 257.353,520C257.288,521.569 257.222,523.399 257.157,525.49C257.092,527.582 256.993,529.673 256.863,531.765C256.863,532.026 256.993,532.157 257.255,532.157C259.346,529.542 261.667,527.255 264.216,525.294C266.765,523.333 269.379,521.765 272.059,520.588C274.739,519.412 277.32,518.824 279.804,518.824C282.549,518.824 284.804,519.412 286.569,520.588C288.333,521.765 289.216,523.268 289.216,525.098C289.216,526.405 288.856,527.843 288.137,529.412C287.418,530.98 286.471,532.353 285.294,533.529C284.118,534.706 282.876,535.294 281.569,535.294C280.784,535.294 279.935,535.131 279.02,534.804C278.105,534.477 277.124,534.052 276.078,533.529C275.033,533.137 273.987,532.745 272.941,532.353C271.895,531.961 270.85,531.765 269.804,531.765C266.667,531.765 263.627,532.876 260.686,535.098C257.745,537.32 256.275,541.699 256.275,548.235L256.275,587.843C256.275,589.542 257.19,590.948 259.02,592.059C260.85,593.17 263.399,594.248 266.667,595.294C268.105,595.686 269.216,596.078 270,596.471C270.784,596.863 271.176,597.516 271.176,598.431C271.176,599.869 269.869,600.588 267.255,600.588C263.333,600.588 260.359,600.425 258.333,600.098C256.307,599.771 253.595,599.608 250.196,599.608C247.974,599.608 246.176,599.673 244.804,599.804C243.431,599.935 241.993,600.098 240.49,600.294C238.987,600.49 236.928,600.588 234.314,600.588Z" style="fill:rgb(0,165,52);fill-rule:nonzero;"/>
        </g>
        <g transform="matrix(1,0,0,1,2,0)">
            <path d="M319.608,602.941C312.418,602.941 306.144,601.176 300.784,597.647C295.425,594.118 291.242,589.118 288.235,582.647C285.229,576.176 283.725,568.693 283.725,560.196C283.725,552.614 285.458,545.719 288.922,539.51C292.386,533.301 296.993,528.301 302.745,524.51C308.497,520.719 314.771,518.824 321.569,518.824C326.797,518.824 331.438,519.869 335.49,521.961C339.542,524.052 342.712,526.961 345,530.686C347.288,534.412 348.431,538.693 348.431,543.529C348.431,547.582 346.471,549.608 342.549,549.608L301.176,549.608C299.346,549.608 298.072,550.098 297.353,551.078C296.634,552.059 296.275,553.987 296.275,556.863C296.275,563.137 297.647,568.856 300.392,574.02C303.137,579.183 306.797,583.301 311.373,586.373C315.948,589.444 320.98,590.98 326.471,590.98C330.392,590.98 333.954,590.229 337.157,588.725C340.359,587.222 343.203,585.033 345.686,582.157C346.209,581.503 346.601,581.078 346.863,580.882C347.124,580.686 347.451,580.588 347.843,580.588C348.889,580.588 349.412,581.242 349.412,582.549C349.412,585.033 348.235,587.778 345.882,590.784C343.922,593.268 341.569,595.425 338.824,597.255C336.078,599.085 333.072,600.49 329.804,601.471C326.536,602.451 323.137,602.941 319.608,602.941ZM301.569,543.529L319.412,543.529C322.549,543.529 325.229,543.464 327.451,543.333C329.673,543.203 331.83,542.941 333.922,542.549C334.575,542.418 335,541.993 335.196,541.275C335.392,540.556 335.49,539.542 335.49,538.235C335.49,534.444 333.824,531.209 330.49,528.529C327.157,525.85 323.203,524.51 318.627,524.51C315.621,524.51 312.614,525.392 309.608,527.157C306.601,528.922 304.118,531.111 302.157,533.725C300.196,536.34 299.216,538.954 299.216,541.569C299.216,542.876 300,543.529 301.569,543.529Z" style="fill:rgb(0,165,52);fill-rule:nonzero;"/>
        </g>
        <g transform="matrix(1,0,0,1,2,0)">
            <path d="M387.647,602.941C380.458,602.941 374.183,601.176 368.824,597.647C363.464,594.118 359.281,589.118 356.275,582.647C353.268,576.176 351.765,568.693 351.765,560.196C351.765,552.614 353.497,545.719 356.961,539.51C360.425,533.301 365.033,528.301 370.784,524.51C376.536,520.719 382.81,518.824 389.608,518.824C394.837,518.824 399.477,519.869 403.529,521.961C407.582,524.052 410.752,526.961 413.039,530.686C415.327,534.412 416.471,538.693 416.471,543.529C416.471,547.582 414.51,549.608 410.588,549.608L369.216,549.608C367.386,549.608 366.111,550.098 365.392,551.078C364.673,552.059 364.314,553.987 364.314,556.863C364.314,563.137 365.686,568.856 368.431,574.02C371.176,579.183 374.837,583.301 379.412,586.373C383.987,589.444 389.02,590.98 394.51,590.98C398.431,590.98 401.993,590.229 405.196,588.725C408.399,587.222 411.242,585.033 413.725,582.157C414.248,581.503 414.641,581.078 414.902,580.882C415.163,580.686 415.49,580.588 415.882,580.588C416.928,580.588 417.451,581.242 417.451,582.549C417.451,585.033 416.275,587.778 413.922,590.784C411.961,593.268 409.608,595.425 406.863,597.255C404.118,599.085 401.111,600.49 397.843,601.471C394.575,602.451 391.176,602.941 387.647,602.941ZM369.608,543.529L387.451,543.529C390.588,543.529 393.268,543.464 395.49,543.333C397.712,543.203 399.869,542.941 401.961,542.549C402.614,542.418 403.039,541.993 403.235,541.275C403.431,540.556 403.529,539.542 403.529,538.235C403.529,534.444 401.863,531.209 398.529,528.529C395.196,525.85 391.242,524.51 386.667,524.51C383.66,524.51 380.654,525.392 377.647,527.157C374.641,528.922 372.157,531.111 370.196,533.725C368.235,536.34 367.255,538.954 367.255,541.569C367.255,542.876 368.039,543.529 369.608,543.529Z" style="fill:rgb(0,165,52);fill-rule:nonzero;"/>
        </g>
        <g transform="matrix(1,0,0,1,2,0)">
            <path d="M420.588,600.588C419.412,600.588 418.464,600.425 417.745,600.098C417.026,599.771 416.667,599.216 416.667,598.431C416.667,597.386 417.059,596.699 417.843,596.373C418.627,596.046 419.739,595.686 421.176,595.294C423.137,594.771 425.033,594.052 426.863,593.137C428.693,592.222 429.608,590.458 429.608,587.843L429.608,545.686C429.608,542.157 429.248,539.15 428.529,536.667C427.81,534.183 425.752,532.484 422.353,531.569C421.83,531.307 421.373,531.013 420.98,530.686C420.588,530.359 420.392,529.804 420.392,529.02C420.392,527.582 420.98,526.797 422.157,526.667C426.732,525.49 430.458,524.052 433.333,522.353C436.209,520.654 439.02,518.758 441.765,516.667C442.157,516.405 442.516,516.176 442.843,515.98C443.17,515.784 443.529,515.686 443.922,515.686C444.183,515.686 444.412,515.817 444.608,516.078C444.804,516.34 444.902,516.667 444.902,517.059C444.902,517.974 444.739,519.837 444.412,522.647C444.085,525.458 443.922,527.778 443.922,529.608C443.922,530.131 443.954,530.621 444.02,531.078C444.085,531.536 444.183,531.83 444.314,531.961C448.889,527.647 453.758,524.379 458.922,522.157C464.085,519.935 469.739,518.824 475.882,518.824C482.288,518.824 487.582,521.438 491.765,526.667C495.948,531.895 498.039,538.366 498.039,546.078L498.039,587.843C498.039,590.458 498.954,592.19 500.784,593.039C502.614,593.889 504.51,594.641 506.471,595.294C507.516,595.686 508.529,596.111 509.51,596.569C510.49,597.026 510.98,597.778 510.98,598.824C510.98,599.608 510.523,600.098 509.608,600.294C508.693,600.49 507.843,600.588 507.059,600.588C504.444,600.588 502.418,600.49 500.98,600.294C499.542,600.098 498.17,599.935 496.863,599.804C495.556,599.673 493.725,599.608 491.373,599.608C489.15,599.608 487.32,599.673 485.882,599.804C484.444,599.935 482.974,600.098 481.471,600.294C479.967,600.49 477.908,600.588 475.294,600.588C474.641,600.588 473.824,600.49 472.843,600.294C471.863,600.098 471.373,599.608 471.373,598.824C471.373,597.778 471.863,597.026 472.843,596.569C473.824,596.111 474.837,595.686 475.882,595.294C477.843,594.641 479.739,593.889 481.569,593.039C483.399,592.19 484.314,590.458 484.314,587.843L484.314,546.667C484.314,540.915 482.712,536.438 479.51,533.235C476.307,530.033 472.026,528.366 466.667,528.235C461.961,528.235 457.843,528.987 454.314,530.49C450.784,531.993 447.647,533.856 444.902,536.078C444.379,536.601 443.987,537.288 443.725,538.137C443.464,538.987 443.333,539.804 443.333,540.588L443.333,587.843C443.333,590.458 444.248,592.222 446.078,593.137C447.908,594.052 449.804,594.771 451.765,595.294C454.771,596.078 456.275,597.124 456.275,598.431C456.275,599.216 455.948,599.771 455.294,600.098C454.641,600.425 453.66,600.588 452.353,600.588C449.739,600.588 447.68,600.49 446.176,600.294C444.673,600.098 443.268,599.935 441.961,599.804C440.654,599.673 438.824,599.608 436.471,599.608C434.248,599.608 432.451,599.673 431.078,599.804C429.706,599.935 428.268,600.098 426.765,600.294C425.261,600.49 423.203,600.588 420.588,600.588Z" style="fill:rgb(0,165,52);fill-rule:nonzero;"/>
        </g>
        <g transform="matrix(1,0,0,1,2,0)">
            <path d="M525.49,600.98C523.791,600.98 522.418,600.817 521.373,600.49C520.327,600.163 519.804,599.608 519.804,598.824C519.804,597.908 520.327,597.19 521.373,596.667C522.418,596.144 524.052,595.686 526.275,595.294C531.242,594.379 535.033,592.778 537.647,590.49C540.261,588.203 541.569,584.706 541.569,580L541.569,503.922C541.569,497.908 541.438,493.301 541.176,490.098C540.915,486.895 540.49,484.641 539.902,483.333C539.314,482.026 538.497,481.307 537.451,481.176C535.621,480.784 533.693,480.556 531.667,480.49C529.641,480.425 526.928,480.392 523.529,480.392L514.314,480.392C511.176,480.392 508.072,481.013 505,482.255C501.928,483.497 499.673,485.425 498.235,488.039C497.843,488.693 497.19,489.641 496.275,490.882C495.359,492.124 494.379,493.203 493.333,494.118C492.288,495.033 491.242,495.49 490.196,495.49C489.673,495.49 489.314,495.229 489.118,494.706C488.922,494.183 488.824,493.595 488.824,492.941C488.824,491.634 489.15,490.327 489.804,489.02C491.634,485.229 492.974,481.863 493.824,478.922C494.673,475.98 495.359,472.484 495.882,468.431C496.144,466.209 496.634,464.902 497.353,464.51C498.072,464.118 498.693,463.922 499.216,463.922C499.739,463.922 500.556,464.706 501.667,466.275C502.778,467.843 503.595,469.15 504.118,470.196C504.902,471.503 506.699,472.484 509.51,473.137C512.32,473.791 515.098,474.118 517.843,474.118L586.863,474.118C591.438,474.118 595.163,473.856 598.039,473.333C600.915,472.81 603.399,472.092 605.49,471.176C607.059,470.392 608.333,469.542 609.314,468.627C610.294,467.712 611.569,467.255 613.137,467.255C613.529,467.255 613.856,467.745 614.118,468.725C614.379,469.706 614.51,470.719 614.51,471.765C614.51,472.418 614.412,473.333 614.216,474.51C614.02,475.686 613.856,476.601 613.725,477.255C613.333,479.608 612.974,481.307 612.647,482.353C612.32,483.399 612.092,484.314 611.961,485.098C611.83,485.882 611.765,487.124 611.765,488.824L611.765,491.176C611.765,492.353 611.503,493.693 610.98,495.196C610.458,496.699 609.673,497.451 608.627,497.451C607.712,497.451 606.993,496.732 606.471,495.294C605.948,493.856 605.425,491.895 604.902,489.412C604.379,486.667 602.81,484.477 600.196,482.843C597.582,481.209 593.137,480.392 586.863,480.392L567.059,480.392C564.183,480.392 562.026,480.784 560.588,481.569C559.15,482.353 558.235,484.314 557.843,487.451C557.451,490.588 557.255,495.752 557.255,502.941L557.255,580C557.255,584.706 558.627,588.203 561.373,590.49C564.118,592.778 567.908,594.379 572.745,595.294C574.967,595.686 576.601,596.144 577.647,596.667C578.693,597.19 579.216,597.908 579.216,598.824C579.216,599.608 578.693,600.163 577.647,600.49C576.601,600.817 575.229,600.98 573.529,600.98C570,600.98 567.092,600.882 564.804,600.686C562.516,600.49 560.327,600.327 558.235,600.196C556.144,600.065 553.595,600 550.588,600C547.32,600 544.477,600.065 542.059,600.196C539.641,600.327 537.157,600.49 534.608,600.686C532.059,600.882 529.02,600.98 525.49,600.98Z" style="fill-rule:nonzero;"/>
        </g>
        <path d="M593.529,600.588C592.353,600.588 591.405,600.425 590.686,600.098C589.967,599.771 589.608,599.216 589.608,598.431C589.608,597.386 590.098,596.667 591.078,596.275C592.059,595.882 593.072,595.556 594.118,595.294C596.863,594.641 598.954,593.824 600.392,592.843C601.83,591.863 602.549,590.196 602.549,587.843L602.549,545.294C602.549,541.765 601.928,538.627 600.686,535.882C599.444,533.137 597.124,531.503 593.725,530.98C593.072,530.85 592.582,530.588 592.255,530.196C591.928,529.804 591.765,529.216 591.765,528.431C591.765,526.993 592.353,526.209 593.529,526.078C598.758,524.902 603.072,523.301 606.471,521.275C609.869,519.248 612.418,517.582 614.118,516.275C615.294,515.359 616.209,514.902 616.863,514.902C617.647,514.902 618.039,515.229 618.039,515.882C618.039,516.928 617.876,518.987 617.549,522.059C617.222,525.131 616.928,528.529 616.667,532.255C616.405,535.98 616.275,539.346 616.275,542.353L616.275,587.843C616.275,590.065 617.026,591.699 618.529,592.745C620.033,593.791 622.092,594.641 624.706,595.294C625.752,595.556 626.765,595.882 627.745,596.275C628.725,596.667 629.216,597.386 629.216,598.431C629.216,599.869 627.908,600.588 625.294,600.588C622.81,600.588 620.817,600.49 619.314,600.294C617.81,600.098 616.373,599.935 615,599.804C613.627,599.673 611.765,599.608 609.412,599.608C607.19,599.608 605.359,599.673 603.922,599.804C602.484,599.935 601.046,600.098 599.608,600.294C598.17,600.49 596.144,600.588 593.529,600.588Z" style="fill-rule:nonzero;"/>
        <g transform="matrix(1,0,0,1,3,0)">
            <path d="M628.431,655.882C627.778,655.882 626.928,655.784 625.882,655.588C624.837,655.392 624.314,654.902 624.314,654.118C624.314,653.072 624.804,652.32 625.784,651.863C626.765,651.405 627.778,650.98 628.824,650.588C630.784,649.935 632.68,649.183 634.51,648.333C636.34,647.484 637.255,645.752 637.255,643.137L637.255,543.725C637.255,542.68 636.961,541.111 636.373,539.02C635.784,536.928 634.837,534.902 633.529,532.941C632.222,530.98 630.458,529.804 628.235,529.412C627.712,529.281 627.32,528.954 627.059,528.431C626.797,527.908 626.667,527.386 626.667,526.863C626.667,526.209 626.797,525.686 627.059,525.294C627.32,524.902 627.647,524.641 628.039,524.51C633.007,523.333 637.255,522.059 640.784,520.686C644.314,519.314 647.647,517.974 650.784,516.667C650.915,516.667 650.98,516.634 650.98,516.569C650.98,516.503 651.046,516.471 651.176,516.471C651.438,516.471 651.699,516.667 651.961,517.059C652.222,517.451 652.353,517.843 652.353,518.235C652.353,519.412 652.19,521.275 651.863,523.824C651.536,526.373 651.373,528.431 651.373,530C651.373,531.046 651.438,531.634 651.569,531.765C652.876,530.458 655.261,528.791 658.725,526.765C662.19,524.739 666.144,522.908 670.588,521.275C675.033,519.641 679.281,518.824 683.333,518.824C690.131,518.824 695.915,520.621 700.686,524.216C705.458,527.81 709.118,532.451 711.667,538.137C714.216,543.824 715.49,549.739 715.49,555.882C715.49,561.765 714.379,567.484 712.157,573.039C709.935,578.595 706.797,583.595 702.745,588.039C698.693,592.484 693.987,596.046 688.627,598.725C683.268,601.405 677.516,602.745 671.373,602.745C669.542,602.745 667.353,602.451 664.804,601.863C662.255,601.275 659.771,600.523 657.353,599.608C654.935,598.693 653.072,597.647 651.765,596.471C651.634,596.471 651.503,597.222 651.373,598.725C651.242,600.229 651.144,601.797 651.078,603.431C651.013,605.065 650.98,606.078 650.98,606.471L650.98,643.137C650.98,644.837 651.667,646.176 653.039,647.157C654.412,648.137 655.98,648.856 657.745,649.314C659.51,649.771 661.046,650.196 662.353,650.588C663.399,650.98 664.412,651.405 665.392,651.863C666.373,652.32 666.863,653.072 666.863,654.118C666.863,654.902 666.34,655.392 665.294,655.588C664.248,655.784 663.333,655.882 662.549,655.882C658.758,655.882 655.588,655.719 653.039,655.392C650.49,655.065 647.516,654.902 644.118,654.902C641.895,654.902 640.098,654.967 638.725,655.098C637.353,655.229 635.948,655.392 634.51,655.588C633.072,655.784 631.046,655.882 628.431,655.882ZM674.314,596.667C676.275,596.667 678.66,596.078 681.471,594.902C684.281,593.725 687.092,591.83 689.902,589.216C692.712,586.601 695.065,583.072 696.961,578.627C698.856,574.183 699.804,568.693 699.804,562.157C699.804,554.575 698.824,548.497 696.863,543.922C694.902,539.346 692.484,535.882 689.608,533.529C686.732,531.176 683.791,529.608 680.784,528.824C677.778,528.039 675.229,527.647 673.137,527.647C670,527.647 666.765,528.301 663.431,529.608C660.098,530.915 657.288,532.386 655,534.02C652.712,535.654 651.569,536.928 651.569,537.843C651.569,540.719 651.536,543.627 651.471,546.569C651.405,549.51 651.34,552.353 651.275,555.098C651.209,557.843 651.144,560.294 651.078,562.451C651.013,564.608 650.98,566.275 650.98,567.451C650.98,572.68 652.19,577.516 654.608,581.961C657.026,586.405 660.033,589.967 663.627,592.647C667.222,595.327 670.784,596.667 674.314,596.667Z" style="fill-rule:nonzero;"/>
        </g>
        <g transform="matrix(1,0,0,1,7,0)">
            <path d="M738.235,602.745C734.183,602.745 730.392,602.124 726.863,600.882C723.333,599.641 720.327,597.908 717.843,595.686C717.19,594.248 716.699,591.83 716.373,588.431C716.046,585.033 715.817,582.222 715.686,580C715.686,578.824 716.536,578.235 718.235,578.235C718.758,578.235 719.248,578.333 719.706,578.529C720.163,578.725 720.458,579.085 720.588,579.608C722.288,586.013 725,590.588 728.725,593.333C732.451,596.078 736.209,597.451 740,597.451C743.791,597.451 747.026,596.176 749.706,593.627C752.386,591.078 753.725,587.908 753.725,584.118C753.725,580.588 752.549,577.549 750.196,575C747.843,572.451 743.725,569.346 737.843,565.686C733.399,562.941 729.804,560.327 727.059,557.843C724.314,555.359 722.32,552.81 721.078,550.196C719.837,547.582 719.216,544.641 719.216,541.373C719.216,537.19 720.196,533.399 722.157,530C724.118,526.601 727.059,523.889 730.98,521.863C734.902,519.837 739.804,518.824 745.686,518.824C749.608,518.824 752.876,519.216 755.49,520C758.105,520.784 760.065,521.634 761.373,522.549C762.418,523.987 763.301,526.242 764.02,529.314C764.739,532.386 765.098,535.294 765.098,538.039C765.098,538.954 764.444,539.412 763.137,539.412C762.353,539.412 761.601,539.248 760.882,538.922C760.163,538.595 759.673,538.17 759.412,537.647C757.712,533.333 755.588,530.033 753.039,527.745C750.49,525.458 747.32,524.314 743.529,524.314C740.261,524.314 737.353,525.294 734.804,527.255C732.255,529.216 730.98,532.092 730.98,535.882C730.98,538.889 731.928,541.569 733.824,543.922C735.719,546.275 739.281,548.954 744.51,551.961C752.092,556.275 757.745,560.294 761.471,564.02C765.196,567.745 767.059,572.68 767.059,578.824C767.059,585.882 764.379,591.634 759.02,596.078C753.66,600.523 746.732,602.745 738.235,602.745Z" style="fill-rule:nonzero;"/>
        </g>
    </g>
</svg>
